<?xml version="1.0" encoding="UTF-8" standalone="no"?>
<!-- Created with Inkscape (http://www.inkscape.org/) -->

<svg
   xmlns:dc="http://purl.org/dc/elements/1.1/"
   xmlns:cc="http://creativecommons.org/ns#"
   xmlns:rdf="http://www.w3.org/1999/02/22-rdf-syntax-ns#"
   xmlns:svg="http://www.w3.org/2000/svg"
   xmlns="http://www.w3.org/2000/svg"
   xmlns:sodipodi="http://sodipodi.sourceforge.net/DTD/sodipodi-0.dtd"
   xmlns:inkscape="http://www.inkscape.org/namespaces/inkscape"
   width="80"
   height="20"
   viewBox="0 0 21.166667 5.2916667"
   version="1.1"
   id="svg7830"
   inkscape:version="0.92pre1 r"
   sodipodi:docname="grass.svg">
  <defs
     id="defs7824" />
  <sodipodi:namedview
     id="base"
     pagecolor="#ffffff"
     bordercolor="#666666"
     borderopacity="1.0"
     inkscape:pageopacity="0.0"
     inkscape:pageshadow="2"
     inkscape:zoom="16"
     inkscape:cx="21.078834"
     inkscape:cy="-6.4320656"
     inkscape:document-units="mm"
     inkscape:current-layer="layer1"
     showgrid="true"
     fit-margin-top="0"
     fit-margin-left="0"
     fit-margin-right="0"
     fit-margin-bottom="0"
     inkscape:window-width="3200"
     inkscape:window-height="1671"
     inkscape:window-x="0"
     inkscape:window-y="55"
     inkscape:window-maximized="1"
     units="px">
    <inkscape:grid
       type="xygrid"
       id="grid8400" />
  </sodipodi:namedview>
  <metadata
     id="metadata7827">
    <rdf:RDF>
      <cc:Work
         rdf:about="">
        <dc:format>image/svg+xml</dc:format>
        <dc:type
           rdf:resource="http://purl.org/dc/dcmitype/StillImage" />
        <dc:title></dc:title>
      </cc:Work>
    </rdf:RDF>
  </metadata>
  <g
     inkscape:label="Layer 1"
     inkscape:groupmode="layer"
     id="layer1"
     transform="translate(-143.71559,-159.02378)">
    <path
       style="fill:#ffffff;fill-opacity:1;stroke:none;stroke-width:0.20855168px;stroke-linecap:butt;stroke-linejoin:miter;stroke-opacity:1"
       d="m 143.71561,163.3295 c 0.32486,-0.56155 0.56884,-1.17248 0.6061,-1.90963 0.35958,0.60251 0.6239,1.23878 0.67345,1.95115 0.67712,-1.31996 0.73124,-2.83263 0.87547,-4.31743 0.39671,1.12809 0.90439,1.74568 1.07752,3.90228 0.13783,-0.66951 0.40331,-1.05758 0.74079,-1.28692 0.27606,0.64744 0.65137,1.21713 1.34689,1.53601 0.65371,-0.57292 0.66261,-1.40175 0.53876,-2.28326 0.71185,0.46368 1.47265,0.88468 1.68361,1.7851 0.33959,-0.90273 0.89615,-1.66553 1.54892,-2.36629 0.31879,0.8229 0.50698,1.69392 1.34689,2.32477 0.13768,-0.64433 0.43931,-1.17735 0.87549,-1.61904 0.0686,0.64651 0.18447,1.27293 0.47141,1.82661 0.55873,-0.97905 0.38394,-2.25925 0.53876,-3.40413 0,0 1.0775,2.03418 0.87547,3.15504 0.75679,-0.007 2.58856,-2.50359 1.953,-2.86444 0.83758,0.34491 1.14906,2.53233 0.87968,2.78142 -0.27813,0.33908 0.87544,-0.65145 1.00596,-1.99266 0.58021,0.77326 1.05846,1.58698 1.41424,2.44931 0.48907,-0.38515 0.94779,-0.81171 1.27954,-1.41147 0.49118,0.21412 0.99949,0.36363 1.4347,0.78876 l -0.004,1.94077 H 143.7152 Z"
       id="path5533-9"
       inkscape:connector-curvature="0"
       sodipodi:nodetypes="cccccccccccccccccccccccc" />
  </g>
</svg>
