<?xml version="1.0" encoding="UTF-8" standalone="no"?>
<!-- Created with Inkscape (http://www.inkscape.org/) -->

<svg
   xmlns:dc="http://purl.org/dc/elements/1.1/"
   xmlns:cc="http://creativecommons.org/ns#"
   xmlns:rdf="http://www.w3.org/1999/02/22-rdf-syntax-ns#"
   xmlns:svg="http://www.w3.org/2000/svg"
   xmlns="http://www.w3.org/2000/svg"
   xmlns:sodipodi="http://sodipodi.sourceforge.net/DTD/sodipodi-0.dtd"
   xmlns:inkscape="http://www.inkscape.org/namespaces/inkscape"
   width="304"
   height="120"
   viewBox="0 0 80.433331 31.749997"
   version="1.1"
   id="svg7929"
   inkscape:export-filename="/home/andreasn/development/ld36_atech/Assets/Sprites/Houses/house6.png"
   inkscape:export-xdpi="96"
   inkscape:export-ydpi="96"
   inkscape:version="0.92pre1 r"
   sodipodi:docname="house6.svg">
  <defs
     id="defs7923" />
  <sodipodi:namedview
     id="base"
     pagecolor="#ffffff"
     bordercolor="#666666"
     borderopacity="1.0"
     inkscape:pageopacity="0.0"
     inkscape:pageshadow="2"
     inkscape:zoom="1.979899"
     inkscape:cx="-2.5144381"
     inkscape:cy="150.40771"
     inkscape:document-units="mm"
     inkscape:current-layer="layer1"
     showgrid="false"
     fit-margin-top="0"
     fit-margin-left="0"
     fit-margin-right="0"
     fit-margin-bottom="0"
     inkscape:window-width="3200"
     inkscape:window-height="1671"
     inkscape:window-x="0"
     inkscape:window-y="55"
     inkscape:window-maximized="1"
     units="px">
    <inkscape:grid
       type="xygrid"
       id="grid8500" />
  </sodipodi:namedview>
  <metadata
     id="metadata7926">
    <rdf:RDF>
      <cc:Work
         rdf:about="">
        <dc:format>image/svg+xml</dc:format>
        <dc:type
           rdf:resource="http://purl.org/dc/dcmitype/StillImage" />
        <dc:title></dc:title>
      </cc:Work>
    </rdf:RDF>
  </metadata>
  <g
     inkscape:label="Layer 1"
     inkscape:groupmode="layer"
     id="layer1"
     transform="translate(166.24174,-137.72783)">
    <path
       style="opacity:1;fill:#ffffff;fill-opacity:1;stroke:none;stroke-width:1.32291663;stroke-linecap:round;stroke-miterlimit:4;stroke-dasharray:none;stroke-opacity:1"
       d="m -125.88569,144.00186 c -15.96173,0.1346 -32.00209,23.24509 -39.06117,23.24509 v 2.23087 h 21.39971 a 17.4625,17.4625 0 0 1 17.45631,-17.33796 17.4625,17.4625 0 0 1 17.45784,17.33796 h 21.78576 v -2.23087 h 0.0222 c -9.6588,0 -23.09892,-23.37969 -39.06065,-23.24509 z"
       id="rect7770"
       inkscape:connector-curvature="0" />
    <rect
       style="opacity:1;fill:#ffffff;fill-opacity:1;stroke:none;stroke-width:1.32291663;stroke-linecap:round;stroke-miterlimit:4;stroke-dasharray:none;stroke-opacity:1"
       id="rect7819"
       width="1.4733232"
       height="5.9400649"
       x="-126.60712"
       y="138.77219" />
    <rect
       style="opacity:1;fill:#ffffff;fill-opacity:1;stroke:none;stroke-width:1.32291663;stroke-linecap:round;stroke-miterlimit:4;stroke-dasharray:none;stroke-opacity:1"
       id="rect7819-3"
       width="1.4733232"
       height="5.9400649"
       x="-137.19051"
       y="142.47638" />
    <rect
       style="opacity:1;fill:#ffffff;fill-opacity:1;stroke:none;stroke-width:1.32291663;stroke-linecap:round;stroke-miterlimit:4;stroke-dasharray:none;stroke-opacity:1"
       id="rect7819-3-2"
       width="1.4733232"
       height="5.9400649"
       x="-147.77388"
       y="149.35553" />
    <rect
       style="opacity:1;fill:#ffffff;fill-opacity:1;stroke:none;stroke-width:1.32291663;stroke-linecap:round;stroke-miterlimit:4;stroke-dasharray:none;stroke-opacity:1"
       id="rect7819-3-2-0"
       width="1.4733232"
       height="5.9400649"
       x="-158.35725"
       y="158.88055" />
    <rect
       style="opacity:1;fill:#ffffff;fill-opacity:1;stroke:none;stroke-width:1.32291663;stroke-linecap:round;stroke-miterlimit:4;stroke-dasharray:none;stroke-opacity:1"
       id="rect7819-3-0"
       width="1.4733232"
       height="5.9400649"
       x="114.55044"
       y="142.47638"
       transform="scale(-1,1)" />
    <rect
       style="opacity:1;fill:#ffffff;fill-opacity:1;stroke:none;stroke-width:1.32291663;stroke-linecap:round;stroke-miterlimit:4;stroke-dasharray:none;stroke-opacity:1"
       id="rect7819-3-2-1"
       width="1.4733232"
       height="5.9400649"
       x="103.96705"
       y="149.35553"
       transform="scale(-1,1)" />
    <rect
       style="opacity:1;fill:#ffffff;fill-opacity:1;stroke:none;stroke-width:1.32291663;stroke-linecap:round;stroke-miterlimit:4;stroke-dasharray:none;stroke-opacity:1"
       id="rect7819-3-2-0-8"
       width="1.4733232"
       height="5.9400649"
       x="93.383682"
       y="158.88054"
       transform="scale(-1,1)" />
    <path
       style="color:#000000;font-style:normal;font-variant:normal;font-weight:normal;font-stretch:normal;font-size:medium;line-height:normal;font-family:sans-serif;font-variant-ligatures:normal;font-variant-position:normal;font-variant-caps:normal;font-variant-numeric:normal;font-variant-alternates:normal;font-feature-settings:normal;text-indent:0;text-align:start;text-decoration:none;text-decoration-line:none;text-decoration-style:solid;text-decoration-color:#000000;letter-spacing:normal;word-spacing:normal;text-transform:none;writing-mode:lr-tb;direction:ltr;text-orientation:mixed;dominant-baseline:auto;baseline-shift:baseline;text-anchor:start;white-space:normal;shape-padding:0;clip-rule:nonzero;display:inline;overflow:visible;visibility:visible;opacity:1;isolation:auto;mix-blend-mode:normal;color-interpolation:sRGB;color-interpolation-filters:linearRGB;solid-color:#000000;solid-opacity:1;fill:#ffffff;fill-opacity:1;fill-rule:nonzero;stroke:none;stroke-width:1.32291663;stroke-linecap:round;stroke-linejoin:miter;stroke-miterlimit:4;stroke-dasharray:none;stroke-dashoffset:0;stroke-opacity:1;color-rendering:auto;image-rendering:auto;shape-rendering:auto;text-rendering:auto;enable-background:accumulate"
       d="m -125.89071,140.69485 c -8.29819,0.07 -16.37499,6.01149 -23.28906,11.82813 -3.45703,2.90832 -6.62446,5.80067 -9.33984,7.94531 -2.71539,2.14464 -5.02388,3.4707 -6.42774,3.4707 a 0.66211,0.66211 0 1 0 0,1.32422 c 2.1257,0 4.4717,-1.56307 7.24805,-3.75586 2.77635,-2.19279 5.94044,-5.08652 9.37109,-7.97265 6.86132,-5.77226 14.78374,-11.45296 22.44727,-11.51758 7.65638,-0.0646 14.90675,5.59602 21.44922,11.40625 3.27123,2.90511 6.360332,5.8298 9.271481,8.05273 2.826991,2.15867 5.494052,3.66879 8.101571,3.75586 a 0.66152448,0.66152448 0 0 0 0.210928,0.0312 h 0.02339 a 0.66152448,0.66152448 0 0 0 0.0644,-0.004 0.66152448,0.66152448 0 0 0 0.13086,-0.0234 0.66152448,0.66152448 0 0 0 0.17969,-0.084 0.66152448,0.66152448 0 0 0 0.0527,-0.0391 0.66152448,0.66152448 0 0 0 0.0488,-0.0449 0.66152448,0.66152448 0 0 0 0.0449,-0.0488 0.66152448,0.66152448 0 0 0 0.0391,-0.0527 0.66152448,0.66152448 0 0 0 0.0332,-0.0566 0.66152448,0.66152448 0 0 0 0.0488,-0.12305 0.66152448,0.66152448 0 0 0 0.01561,-0.0645 0.66152448,0.66152448 0 0 0 0.01,-0.0645 0.66152448,0.66152448 0 0 0 0.0021,-0.0664 0.66152448,0.66152448 0 0 0 -0.0566,-0.25782 0.66152448,0.66152448 0 0 0 -0.0293,-0.0586 0.66152448,0.66152448 0 0 0 -0.0352,-0.0547 0.66152448,0.66152448 0 0 0 -0.0859,-0.0996 0.66152448,0.66152448 0 0 0 -0.224611,-0.13867 0.66152448,0.66152448 0 0 0 -0.0625,-0.0215 0.66152448,0.66152448 0 0 0 -0.0645,-0.0137 0.66152448,0.66152448 0 0 0 -0.111331,-0.008 c -2.14785,0 -4.708991,-1.35712 -7.533201,-3.51367 -2.824307,-2.15656 -5.904047,-5.06921 -9.195407,-7.9922 -6.58273,-5.84597 -14.03255,-11.80831 -22.3379,-11.73828 z"
       id="rect7770-8"
       inkscape:connector-curvature="0" />
  </g>
</svg>
